<svg width="230.508" height="35.205" viewBox="0 0 230.508 35.205" xmlns="http://www.w3.org/2000/svg"><g id="svgGroup" stroke-linecap="round" fill-rule="evenodd" font-size="9pt" stroke="#000" stroke-width="0mm" fill="#000" style="stroke:#000;stroke-width:0mm;fill:#000"><path d="M 13.997 26.78 L 0 26.78 L 0 1.794 L 2.905 1.794 L 2.905 24.182 L 13.997 24.182 L 13.997 26.78 Z" id="0"/><path d="M 17.842 8.049 L 20.679 8.049 L 20.679 26.78 L 17.842 26.78 L 17.842 8.049 Z M 19.294 1.043 Q 19.995 1.043 20.499 1.495 A 1.399 1.399 0 0 1 20.885 2.096 Q 20.963 2.323 20.989 2.601 A 3.186 3.186 0 0 1 21.003 2.905 A 2.786 2.786 0 0 1 20.957 3.434 Q 20.85 3.986 20.499 4.307 A 1.723 1.723 0 0 1 19.294 4.768 A 1.923 1.923 0 0 1 18.682 4.674 A 1.626 1.626 0 0 1 18.073 4.307 A 1.441 1.441 0 0 1 17.7 3.704 Q 17.622 3.47 17.597 3.185 A 3.224 3.224 0 0 1 17.585 2.905 A 2.977 2.977 0 0 1 17.628 2.382 Q 17.73 1.814 18.073 1.495 A 1.677 1.677 0 0 1 19.093 1.051 A 2.227 2.227 0 0 1 19.294 1.043 Z" id="1"/><path d="M 42.297 14.578 L 42.297 26.78 L 39.495 26.78 L 39.495 14.766 A 8.197 8.197 0 0 0 39.4 13.479 Q 39.292 12.801 39.061 12.26 A 3.488 3.488 0 0 0 38.427 11.262 Q 37.518 10.274 35.787 10.126 A 7.454 7.454 0 0 0 35.154 10.1 A 8.593 8.593 0 0 0 33.571 10.236 Q 31.693 10.588 30.779 11.86 A 5.866 5.866 0 0 0 29.966 13.534 Q 29.719 14.318 29.607 15.273 A 14.601 14.601 0 0 0 29.514 16.97 L 29.514 26.78 L 26.677 26.78 L 26.677 8.049 L 28.967 8.049 L 29.395 10.75 L 29.548 10.75 A 5.675 5.675 0 0 1 31.069 9.083 A 6.885 6.885 0 0 1 33.137 8.058 A 8.179 8.179 0 0 1 35.507 7.708 A 9.103 9.103 0 0 1 35.547 7.708 A 10.849 10.849 0 0 1 37.471 7.867 Q 39.413 8.218 40.588 9.34 A 4.903 4.903 0 0 1 41.779 11.204 Q 42.297 12.592 42.297 14.578 Z" id="2"/><path d="M 48.142 0.188 L 50.962 0.188 L 50.962 13.997 Q 50.962 14.467 50.938 15.078 A 46.906 46.906 0 0 1 50.911 15.663 A 327.31 327.31 0 0 0 50.869 16.479 Q 50.844 16.975 50.825 17.397 L 50.945 17.397 A 98.908 98.908 0 0 0 51.145 17.149 Q 51.373 16.864 51.69 16.467 A 438.992 438.992 0 0 0 51.996 16.082 A 47.648 47.648 0 0 1 52.329 15.667 Q 52.808 15.078 53.167 14.68 L 59.387 8.049 L 62.72 8.049 L 55.183 16.047 L 63.267 26.78 L 59.849 26.78 L 53.235 17.91 L 50.962 19.995 L 50.962 26.78 L 48.142 26.78 L 48.142 0.188 Z" id="3"/><path d="M 83.586 23.584 L 83.586 26.113 Q 82.219 26.626 80.715 26.874 Q 79.211 27.122 77.144 27.122 Q 73.691 27.122 71.269 25.824 A 9.119 9.119 0 0 1 70.778 25.541 Q 68.223 23.96 66.949 21.072 A 14.41 14.41 0 0 1 65.956 17.709 Q 65.676 16.095 65.676 14.253 A 17.602 17.602 0 0 1 65.942 11.136 A 14.41 14.41 0 0 1 66.471 9.066 A 11.959 11.959 0 0 1 67.983 6.034 A 10.834 10.834 0 0 1 68.795 5.007 Q 70.325 3.298 72.555 2.367 A 11.832 11.832 0 0 1 75.435 1.589 A 15.662 15.662 0 0 1 77.673 1.436 Q 79.57 1.436 81.331 1.812 A 14.622 14.622 0 0 1 83.349 2.39 A 12.066 12.066 0 0 1 84.509 2.888 L 83.347 5.349 A 17.065 17.065 0 0 0 81.636 4.68 A 20.448 20.448 0 0 0 80.724 4.401 A 10.819 10.819 0 0 0 78.553 4.031 A 12.923 12.923 0 0 0 77.639 3.999 A 10.379 10.379 0 0 0 75.56 4.199 A 8.375 8.375 0 0 0 73.922 4.708 Q 72.273 5.418 71.119 6.759 A 8.83 8.83 0 0 0 69.739 8.974 A 10.814 10.814 0 0 0 69.351 9.998 A 12.369 12.369 0 0 0 68.845 12.351 A 16.19 16.19 0 0 0 68.735 14.27 A 16.986 16.986 0 0 0 68.923 16.863 Q 69.146 18.305 69.634 19.525 A 10.406 10.406 0 0 0 69.718 19.73 A 8.213 8.213 0 0 0 71.18 22.056 A 7.403 7.403 0 0 0 72.657 23.311 A 7.595 7.595 0 0 0 75.165 24.332 Q 76.265 24.575 77.554 24.575 Q 79.229 24.575 80.707 24.293 A 27.601 27.601 0 0 0 83.586 23.584 Z" id="4"/><path d="M 102.18 14.048 L 102.18 26.78 L 100.112 26.78 L 99.565 24.011 L 99.429 24.011 Q 98.643 25.037 97.788 25.729 A 5.855 5.855 0 0 1 95.97 26.72 A 6.698 6.698 0 0 1 95.814 26.771 Q 94.695 27.122 93.071 27.122 A 8.329 8.329 0 0 1 91.458 26.972 A 6.489 6.489 0 0 1 90.038 26.523 A 4.676 4.676 0 0 1 87.953 24.712 Q 87.192 23.499 87.192 21.636 Q 87.192 18.867 89.361 17.366 A 6.155 6.155 0 0 1 89.414 17.329 A 7.626 7.626 0 0 1 91.263 16.441 Q 93.07 15.832 95.699 15.707 A 27.651 27.651 0 0 1 96.182 15.689 L 99.412 15.552 L 99.412 14.407 A 8.862 8.862 0 0 0 99.338 13.222 Q 99.16 11.907 98.55 11.195 A 2.36 2.36 0 0 0 98.369 11.006 A 3.408 3.408 0 0 0 96.973 10.232 Q 96.46 10.082 95.849 10.044 A 6.847 6.847 0 0 0 95.43 10.032 A 9.127 9.127 0 0 0 92.627 10.459 Q 91.294 10.886 90.098 11.467 L 89.226 9.314 Q 90.491 8.665 92.131 8.203 A 12.614 12.614 0 0 1 95.358 7.744 A 14.1 14.1 0 0 1 95.583 7.742 A 11.849 11.849 0 0 1 97.417 7.874 Q 99.414 8.187 100.557 9.246 A 4.551 4.551 0 0 1 101.722 11.05 Q 101.994 11.79 102.105 12.708 A 11.231 11.231 0 0 1 102.18 14.048 Z M 99.377 19.277 L 99.377 17.551 L 96.523 17.671 Q 93.774 17.778 92.299 18.422 A 4.074 4.074 0 0 0 91.584 18.816 A 3.21 3.21 0 0 0 90.181 21.14 A 4.309 4.309 0 0 0 90.149 21.67 A 4.185 4.185 0 0 0 90.243 22.587 Q 90.375 23.174 90.692 23.602 A 2.334 2.334 0 0 0 91.123 24.045 Q 92.016 24.75 93.44 24.809 A 6.39 6.39 0 0 0 93.704 24.814 A 7.357 7.357 0 0 0 95.548 24.595 A 5.424 5.424 0 0 0 97.788 23.43 A 4.387 4.387 0 0 0 99.115 21.298 Q 99.328 20.57 99.368 19.691 A 9.112 9.112 0 0 0 99.377 19.277 Z" id="5"/><path d="M 116.707 24.387 L 116.707 26.592 A 3.519 3.519 0 0 1 116.359 26.724 Q 115.964 26.853 115.41 26.954 A 11.625 11.625 0 0 1 115.331 26.968 Q 114.451 27.122 113.613 27.122 A 7.343 7.343 0 0 1 111.986 26.947 A 6.166 6.166 0 0 1 110.913 26.6 A 4.002 4.002 0 0 1 109.166 25.137 A 5.048 5.048 0 0 1 108.973 24.832 Q 108.442 23.918 108.299 22.492 A 11.216 11.216 0 0 1 108.247 21.379 L 108.247 10.271 L 105.581 10.271 L 105.581 8.887 L 108.264 7.776 L 109.392 3.709 L 111.101 3.709 L 111.101 8.049 L 116.587 8.049 L 116.587 10.271 L 111.101 10.271 L 111.101 21.294 A 6.094 6.094 0 0 0 111.173 22.261 Q 111.255 22.77 111.431 23.177 A 2.61 2.61 0 0 0 111.913 23.926 A 2.694 2.694 0 0 0 113.607 24.769 A 3.772 3.772 0 0 0 114.075 24.797 A 8.876 8.876 0 0 0 115.419 24.692 A 9.785 9.785 0 0 0 115.51 24.678 A 9.728 9.728 0 0 0 115.983 24.589 Q 116.404 24.499 116.707 24.387 Z" id="6"/><path d="M 134.104 14.048 L 134.104 26.78 L 132.036 26.78 L 131.489 24.011 L 131.353 24.011 Q 130.566 25.037 129.712 25.729 A 5.855 5.855 0 0 1 127.894 26.72 A 6.698 6.698 0 0 1 127.738 26.771 Q 126.619 27.122 124.995 27.122 A 8.329 8.329 0 0 1 123.382 26.972 A 6.489 6.489 0 0 1 121.962 26.523 A 4.676 4.676 0 0 1 119.877 24.712 Q 119.116 23.499 119.116 21.636 Q 119.116 18.867 121.285 17.366 A 6.155 6.155 0 0 1 121.338 17.329 A 7.626 7.626 0 0 1 123.187 16.441 Q 124.994 15.832 127.623 15.707 A 27.651 27.651 0 0 1 128.105 15.689 L 131.335 15.552 L 131.335 14.407 A 8.862 8.862 0 0 0 131.262 13.222 Q 131.084 11.907 130.474 11.195 A 2.36 2.36 0 0 0 130.293 11.006 A 3.408 3.408 0 0 0 128.897 10.232 Q 128.384 10.082 127.772 10.044 A 6.847 6.847 0 0 0 127.354 10.032 A 9.127 9.127 0 0 0 124.551 10.459 Q 123.218 10.886 122.021 11.467 L 121.15 9.314 Q 122.415 8.665 124.055 8.203 A 12.614 12.614 0 0 1 127.282 7.744 A 14.1 14.1 0 0 1 127.507 7.742 A 11.849 11.849 0 0 1 129.341 7.874 Q 131.338 8.187 132.48 9.246 A 4.551 4.551 0 0 1 133.646 11.05 Q 133.918 11.79 134.028 12.708 A 11.231 11.231 0 0 1 134.104 14.048 Z M 131.301 19.277 L 131.301 17.551 L 128.447 17.671 Q 125.698 17.778 124.222 18.422 A 4.074 4.074 0 0 0 123.508 18.816 A 3.21 3.21 0 0 0 122.104 21.14 A 4.309 4.309 0 0 0 122.073 21.67 A 4.185 4.185 0 0 0 122.167 22.587 Q 122.299 23.174 122.616 23.602 A 2.334 2.334 0 0 0 123.047 24.045 Q 123.94 24.75 125.364 24.809 A 6.39 6.39 0 0 0 125.627 24.814 A 7.357 7.357 0 0 0 127.472 24.595 A 5.424 5.424 0 0 0 129.712 23.43 A 4.387 4.387 0 0 0 131.039 21.298 Q 131.252 20.57 131.292 19.691 A 9.112 9.112 0 0 0 131.301 19.277 Z" id="7"/><path d="M 142.803 0.188 L 142.803 26.78 L 139.949 26.78 L 139.949 0.188 L 142.803 0.188 Z" id="8"/><path d="M 164.789 19.531 A 15.234 15.234 0 0 0 164.934 17.38 A 17.07 17.07 0 0 0 164.93 17.019 Q 164.904 15.766 164.692 14.668 A 9.869 9.869 0 0 0 163.866 12.159 A 9.274 9.274 0 0 0 163.658 11.763 A 7.611 7.611 0 0 0 160.875 8.853 A 7.833 7.833 0 0 0 158.788 7.993 A 9.694 9.694 0 0 0 156.389 7.708 A 10.924 10.924 0 0 0 154.481 7.867 A 8.128 8.128 0 0 0 151.766 8.844 A 7.241 7.241 0 0 0 150.431 9.847 A 7.812 7.812 0 0 0 148.784 12.142 A 8.861 8.861 0 0 0 148.565 12.635 Q 148.118 13.727 147.914 15.032 A 15.192 15.192 0 0 0 147.742 17.38 A 14.865 14.865 0 0 0 147.861 19.304 A 11.169 11.169 0 0 0 148.365 21.499 A 10.124 10.124 0 0 0 148.781 22.525 A 8.178 8.178 0 0 0 150.126 24.558 A 7.592 7.592 0 0 0 152.826 26.464 A 8.08 8.08 0 0 0 154.043 26.865 A 9.349 9.349 0 0 0 156.27 27.122 A 11.048 11.048 0 0 0 157.723 27.029 A 8.633 8.633 0 0 0 159.884 26.464 A 7.443 7.443 0 0 0 162.61 24.558 A 7.647 7.647 0 0 0 163.495 23.359 A 9.227 9.227 0 0 0 164.336 21.499 A 11.405 11.405 0 0 0 164.789 19.531 Z M 150.681 17.38 A 14.33 14.33 0 0 0 150.794 19.224 Q 150.941 20.355 151.279 21.294 A 6.007 6.007 0 0 0 151.997 22.703 A 4.835 4.835 0 0 0 153.125 23.857 A 4.549 4.549 0 0 0 154.756 24.59 Q 155.388 24.742 156.125 24.761 A 8.278 8.278 0 0 0 156.338 24.763 A 6.876 6.876 0 0 0 157.741 24.628 Q 158.643 24.44 159.346 23.991 A 4.225 4.225 0 0 0 159.542 23.857 A 4.985 4.985 0 0 0 161.056 22.076 A 6.444 6.444 0 0 0 161.396 21.294 A 9.558 9.558 0 0 0 161.84 19.517 Q 161.995 18.526 161.995 17.38 A 14.124 14.124 0 0 0 161.888 15.599 Q 161.77 14.668 161.519 13.871 A 8.122 8.122 0 0 0 161.396 13.51 A 5.852 5.852 0 0 0 160.665 12.103 A 4.772 4.772 0 0 0 159.551 10.989 A 4.561 4.561 0 0 0 157.979 10.286 Q 157.227 10.1 156.321 10.1 A 6.952 6.952 0 0 0 154.648 10.289 A 4.349 4.349 0 0 0 152.04 12.031 A 6.715 6.715 0 0 0 151.111 14.006 Q 150.843 14.91 150.742 15.998 A 14.97 14.97 0 0 0 150.681 17.38 Z" id="9"/><path d="M 178.726 8.015 L 185.151 8.015 L 185.151 9.844 L 181.699 10.271 Q 182.212 10.938 182.554 11.877 A 5.669 5.669 0 0 1 182.859 13.233 A 7.045 7.045 0 0 1 182.896 13.962 A 6.674 6.674 0 0 1 182.606 15.976 A 5.279 5.279 0 0 1 180.999 18.414 Q 179.29 19.9 176.429 20.047 A 12.513 12.513 0 0 1 175.786 20.064 A 9.736 9.736 0 0 1 174.231 19.935 A 10.693 10.693 0 0 1 174.18 19.927 A 5.355 5.355 0 0 0 173.587 20.303 Q 173.292 20.52 173.072 20.757 A 2.846 2.846 0 0 0 172.906 20.952 Q 172.471 21.516 172.471 22.251 A 1.452 1.452 0 0 0 172.518 22.63 A 1.059 1.059 0 0 0 172.804 23.123 Q 173.077 23.389 173.552 23.535 A 3.136 3.136 0 0 0 173.77 23.593 Q 174.288 23.712 174.978 23.733 A 10.048 10.048 0 0 0 175.291 23.738 L 178.589 23.738 A 11.724 11.724 0 0 1 180.361 23.863 Q 181.288 24.005 182.035 24.308 A 5.116 5.116 0 0 1 183.28 25.02 A 4.149 4.149 0 0 1 184.816 27.639 A 6.279 6.279 0 0 1 184.912 28.762 A 6.063 6.063 0 0 1 184.534 30.951 Q 183.971 32.416 182.573 33.401 A 6.859 6.859 0 0 1 182.383 33.53 A 8.689 8.689 0 0 1 180.116 34.557 Q 179.004 34.892 177.651 35.049 A 22.434 22.434 0 0 1 175.068 35.188 Q 172.646 35.188 170.952 34.596 A 6.615 6.615 0 0 1 169.377 33.812 Q 167.515 32.531 167.387 30.292 A 5.874 5.874 0 0 1 167.378 29.959 Q 167.378 28.198 168.497 26.951 A 4.981 4.981 0 0 1 170.286 25.696 A 6.946 6.946 0 0 1 171.599 25.293 A 3.322 3.322 0 0 1 170.384 24.32 A 3.883 3.883 0 0 1 170.343 24.268 Q 169.822 23.584 169.822 22.695 A 3.1 3.1 0 0 1 170.029 21.551 A 2.892 2.892 0 0 1 170.394 20.892 Q 170.967 20.115 172.146 19.397 A 5.013 5.013 0 0 1 169.878 17.547 A 6.145 6.145 0 0 1 169.762 17.372 Q 168.848 15.945 168.848 14.048 A 8.105 8.105 0 0 1 169.005 12.41 A 5.889 5.889 0 0 1 169.685 10.604 Q 170.522 9.177 172.112 8.425 A 7.42 7.42 0 0 1 173.868 7.861 Q 174.829 7.673 175.957 7.673 Q 176.453 7.673 176.957 7.716 A 12.353 12.353 0 0 1 177.748 7.808 A 10.982 10.982 0 0 1 177.922 7.836 A 8.264 8.264 0 0 1 178.303 7.908 Q 178.476 7.945 178.627 7.987 A 4.603 4.603 0 0 1 178.726 8.015 Z M 177.615 26.387 L 174.368 26.387 Q 173.103 26.387 172.163 26.78 Q 171.223 27.173 170.719 27.942 Q 170.228 28.691 170.215 29.796 A 5.136 5.136 0 0 0 170.215 29.856 A 2.849 2.849 0 0 0 170.41 30.933 Q 170.682 31.605 171.331 32.062 A 3.361 3.361 0 0 0 171.497 32.172 A 4.526 4.526 0 0 0 172.612 32.656 Q 173.665 32.965 175.142 32.966 A 13.991 13.991 0 0 0 175.154 32.966 A 19.038 19.038 0 0 0 176.722 32.906 Q 177.456 32.845 178.088 32.723 A 8.836 8.836 0 0 0 179.008 32.496 Q 180.153 32.144 180.867 31.563 A 3.433 3.433 0 0 0 181.298 31.146 A 3.097 3.097 0 0 0 182.058 29.053 Q 182.058 28.317 181.84 27.818 A 1.728 1.728 0 0 0 181.545 27.352 A 2.176 2.176 0 0 0 180.866 26.85 Q 180.579 26.711 180.226 26.624 A 4.182 4.182 0 0 0 180.042 26.583 Q 179.285 26.433 178.27 26.398 A 18.752 18.752 0 0 0 177.615 26.387 Z M 175.889 17.996 A 6.426 6.426 0 0 0 177.048 17.898 Q 177.69 17.78 178.192 17.52 A 3.041 3.041 0 0 0 178.948 16.97 Q 179.848 16.07 179.958 14.447 A 6.903 6.903 0 0 0 179.973 13.98 A 6.754 6.754 0 0 0 179.876 12.796 Q 179.761 12.148 179.507 11.638 A 3.115 3.115 0 0 0 178.931 10.826 A 3.31 3.31 0 0 0 177.549 10.008 Q 177.042 9.848 176.431 9.798 A 7.071 7.071 0 0 0 175.854 9.775 A 5.616 5.616 0 0 0 174.673 9.892 Q 173.909 10.057 173.336 10.453 A 3.211 3.211 0 0 0 172.855 10.861 Q 171.963 11.782 171.828 13.423 A 7.422 7.422 0 0 0 171.804 14.031 A 5.54 5.54 0 0 0 171.918 15.191 Q 172.152 16.281 172.864 16.97 Q 173.805 17.881 175.462 17.983 A 6.979 6.979 0 0 0 175.889 17.996 Z" id="10"/><path d="M 188.459 24.4 A 3.877 3.877 0 0 0 188.416 25.002 Q 188.416 25.629 188.58 26.075 A 1.629 1.629 0 0 0 188.997 26.72 A 1.976 1.976 0 0 0 189.625 27.117 A 2.155 2.155 0 0 0 190.415 27.258 Q 191.287 27.258 191.885 26.72 A 1.567 1.567 0 0 0 192.247 26.231 Q 192.483 25.743 192.483 25.002 A 3.894 3.894 0 0 0 192.45 24.477 Q 192.407 24.163 192.309 23.914 A 1.495 1.495 0 0 0 191.885 23.302 A 2.068 2.068 0 0 0 191.16 22.905 A 2.493 2.493 0 0 0 190.415 22.798 A 2.649 2.649 0 0 0 190.235 22.804 A 2.049 2.049 0 0 0 188.997 23.302 A 1.466 1.466 0 0 0 188.611 23.848 Q 188.508 24.091 188.459 24.4 Z" id="11"/><path d="M 206.377 8.049 L 206.377 10.271 L 201.711 10.271 L 201.711 26.78 L 198.875 26.78 L 198.875 10.271 L 195.559 10.271 L 195.559 8.904 L 198.875 7.964 L 198.875 6.716 A 13.068 13.068 0 0 1 198.957 5.199 Q 199.049 4.419 199.241 3.766 A 6.06 6.06 0 0 1 199.575 2.88 A 4.969 4.969 0 0 1 200.498 1.528 A 4.388 4.388 0 0 1 201.609 0.701 A 5.832 5.832 0 0 1 203.176 0.157 Q 203.854 0.02 204.632 0.002 A 10.18 10.18 0 0 1 204.856 0 A 10.733 10.733 0 0 1 206.003 0.059 A 8.427 8.427 0 0 1 206.83 0.188 A 15.301 15.301 0 0 1 207.624 0.376 Q 207.995 0.474 208.319 0.584 A 9.047 9.047 0 0 1 208.411 0.615 L 207.676 2.854 Q 207.095 2.666 206.368 2.504 Q 205.642 2.341 204.89 2.341 Q 203.267 2.341 202.489 3.392 A 3.276 3.276 0 0 0 202.031 4.3 Q 201.711 5.247 201.711 6.682 L 201.711 8.049 L 206.377 8.049 Z" id="12"/><path d="M 214.358 26.814 L 206.855 8.049 L 209.897 8.049 L 214.033 18.918 Q 214.392 19.876 214.7 20.756 Q 215.007 21.636 215.247 22.439 A 15.126 15.126 0 0 1 215.548 23.615 A 13.177 13.177 0 0 1 215.623 23.994 L 215.742 23.994 A 37.945 37.945 0 0 1 215.875 23.533 Q 216.062 22.896 216.334 22.035 A 126.389 126.389 0 0 1 216.426 21.747 A 98.542 98.542 0 0 1 217.383 18.901 L 221.296 8.049 L 224.355 8.049 L 216.204 29.531 A 16.628 16.628 0 0 1 215.501 31.146 A 12.73 12.73 0 0 1 214.691 32.539 A 6.513 6.513 0 0 1 213.469 33.911 A 5.758 5.758 0 0 1 212.598 34.513 Q 211.367 35.205 209.624 35.205 Q 208.906 35.205 208.337 35.13 A 6.67 6.67 0 0 1 208.206 35.111 A 12.994 12.994 0 0 1 207.768 35.037 Q 207.553 34.997 207.364 34.952 A 6.893 6.893 0 0 1 207.146 34.897 L 207.146 32.625 A 7.017 7.017 0 0 0 207.451 32.686 Q 207.724 32.736 208.06 32.778 A 8.769 8.769 0 0 0 209.035 32.846 A 9.744 9.744 0 0 0 209.18 32.847 A 4.705 4.705 0 0 0 210.082 32.764 A 3.478 3.478 0 0 0 211.017 32.445 Q 211.794 32.043 212.358 31.274 A 7.042 7.042 0 0 0 212.944 30.317 A 9.193 9.193 0 0 0 213.333 29.446 L 214.358 26.814 Z" id="13"/><path d="M 227.346 8.049 L 230.183 8.049 L 230.183 26.78 L 227.346 26.78 L 227.346 8.049 Z M 228.799 1.043 Q 229.5 1.043 230.004 1.495 A 1.399 1.399 0 0 1 230.39 2.096 Q 230.467 2.323 230.494 2.601 A 3.186 3.186 0 0 1 230.508 2.905 A 2.786 2.786 0 0 1 230.461 3.434 Q 230.354 3.986 230.004 4.307 A 1.723 1.723 0 0 1 228.799 4.768 A 1.923 1.923 0 0 1 228.186 4.674 A 1.626 1.626 0 0 1 227.577 4.307 A 1.441 1.441 0 0 1 227.204 3.704 Q 227.126 3.47 227.102 3.185 A 3.224 3.224 0 0 1 227.09 2.905 A 2.977 2.977 0 0 1 227.133 2.382 Q 227.234 1.814 227.577 1.495 A 1.677 1.677 0 0 1 228.597 1.051 A 2.227 2.227 0 0 1 228.799 1.043 Z" id="14"/></g></svg>