<svg width="249.04" height="36.12" viewBox="0 0 249.04 36.12" xmlns="http://www.w3.org/2000/svg"><g id="svgGroup" stroke-linecap="round" fill-rule="evenodd" font-size="9pt" stroke="#343434" stroke-width="0.1mm" fill="#171717" style="stroke:#343434;stroke-width:0.1mm;fill:#171717"><path d="M 95.48 3.6 L 94.2 6.28 Q 92.36 4.56 90.38 3.78 A 11.254 11.254 0 0 0 87.317 3.062 A 13.757 13.757 0 0 0 86 3 A 12.035 12.035 0 0 0 83.023 3.347 A 8.065 8.065 0 0 0 78.72 6 Q 76.2 9 76.2 14.44 Q 76.2 18.3 77.45 20.929 A 9.258 9.258 0 0 0 78.72 22.92 A 8.155 8.155 0 0 0 83.435 25.67 A 12.425 12.425 0 0 0 86 25.92 A 12.812 12.812 0 0 0 88.7 25.646 A 10.737 10.737 0 0 0 90.38 25.14 A 10.973 10.973 0 0 0 92.682 23.883 A 14.296 14.296 0 0 0 94.2 22.64 L 95.48 25.32 A 11.55 11.55 0 0 1 91.94 27.717 A 13.555 13.555 0 0 1 91.3 27.98 A 14.399 14.399 0 0 1 87.263 28.869 A 17.198 17.198 0 0 1 85.92 28.92 Q 81.76 28.92 78.8 27.16 Q 75.84 25.4 74.26 22.16 Q 72.68 18.92 72.68 14.44 A 21.022 21.022 0 0 1 72.982 10.785 A 15.14 15.14 0 0 1 74.26 6.76 Q 75.84 3.52 78.8 1.76 A 12.245 12.245 0 0 1 82.853 0.269 A 16.74 16.74 0 0 1 85.92 0 Q 88.84 0 91.3 0.92 A 11.533 11.533 0 0 1 94.633 2.821 A 10.774 10.774 0 0 1 95.48 3.6 Z M 56.52 28.56 L 53.28 28.56 L 53.28 0.36 L 56.52 0.36 L 56.52 17.76 L 56.6 17.76 L 65.6 9.12 L 69.72 9.12 L 59.96 18.48 L 70.56 28.56 L 66.44 28.56 L 56.6 19.44 L 56.52 19.44 L 56.52 28.56 Z M 189.76 33.48 L 190.84 31.12 A 14.605 14.605 0 0 0 192.719 32.263 A 11.313 11.313 0 0 0 194.42 32.96 A 12.248 12.248 0 0 0 197.196 33.481 A 14.613 14.613 0 0 0 198.28 33.52 A 8.042 8.042 0 0 0 200.59 33.218 Q 203.137 32.453 203.804 29.756 A 9.004 9.004 0 0 0 204.04 27.6 L 204.04 24.16 Q 203.2 26 201.42 27.06 A 7.564 7.564 0 0 1 198.129 28.089 A 9.29 9.29 0 0 1 197.36 28.12 Q 194.68 28.12 192.72 26.88 Q 190.76 25.64 189.7 23.46 A 10.358 10.358 0 0 1 188.795 20.503 A 13.691 13.691 0 0 1 188.64 18.4 Q 188.64 15.52 189.7 13.34 Q 190.76 11.16 192.72 9.96 A 8.083 8.083 0 0 1 195.751 8.878 A 10.618 10.618 0 0 1 197.36 8.76 A 8.531 8.531 0 0 1 199.767 9.089 A 7.365 7.365 0 0 1 201.42 9.8 Q 203.2 10.84 204.04 12.64 L 204.04 9.12 L 207.2 9.12 L 207.2 27.16 A 14.407 14.407 0 0 1 206.994 29.682 Q 206.748 31.064 206.207 32.15 A 6.639 6.639 0 0 1 204.98 33.88 Q 202.76 36.12 198.44 36.12 A 17.107 17.107 0 0 1 194.865 35.757 A 15.23 15.23 0 0 1 193.7 35.46 A 12.256 12.256 0 0 1 190.423 33.952 A 11.373 11.373 0 0 1 189.76 33.48 Z M 33.8 28.56 L 30.56 28.56 L 30.56 9.12 L 33.72 9.12 L 33.72 12.44 Q 34.68 10.6 36.44 9.68 Q 38.2 8.76 40.4 8.76 Q 47.32 8.76 47.32 16.44 L 47.32 28.56 L 44.08 28.56 L 44.08 16.64 A 11.084 11.084 0 0 0 43.996 15.226 Q 43.797 13.686 43.127 12.795 A 3.165 3.165 0 0 0 43.02 12.66 Q 42.123 11.594 40.325 11.43 A 7.537 7.537 0 0 0 39.64 11.4 A 6.991 6.991 0 0 0 37.785 11.634 A 5.128 5.128 0 0 0 35.38 13.06 A 5.595 5.595 0 0 0 33.954 15.863 A 8.074 8.074 0 0 0 33.8 17.48 L 33.8 28.56 Z M 17.64 28.56 L 0 28.56 L 0 0.36 L 3.28 0.36 L 3.28 25.68 L 17.64 25.68 L 17.64 28.56 Z M 145.56 17.28 L 146.84 17.28 L 146.84 16.04 A 9.528 9.528 0 0 0 146.762 14.771 Q 146.572 13.366 145.925 12.58 A 2.718 2.718 0 0 0 145.82 12.46 Q 145.02 11.598 143.47 11.411 A 7.643 7.643 0 0 0 142.56 11.36 Q 140.8 11.36 139.16 11.86 Q 137.52 12.36 135.8 13.48 L 134.68 11.12 A 10.796 10.796 0 0 1 136.54 10.071 A 14.616 14.616 0 0 1 138.38 9.4 Q 140.56 8.76 142.56 8.76 Q 146.32 8.76 148.14 10.6 A 5.626 5.626 0 0 1 149.416 12.687 Q 149.96 14.198 149.96 16.32 L 149.96 28.56 L 146.92 28.56 L 146.92 25.2 Q 146.16 26.92 144.58 27.92 Q 143 28.92 140.88 28.92 A 8.815 8.815 0 0 1 138.874 28.7 A 7.272 7.272 0 0 1 137.3 28.14 A 6.593 6.593 0 0 1 135.51 26.867 A 6.063 6.063 0 0 1 134.8 26 Q 133.88 24.64 133.88 22.96 Q 133.88 21.164 134.67 19.999 A 3.896 3.896 0 0 1 134.98 19.6 Q 135.766 18.714 137.286 18.186 A 11.095 11.095 0 0 1 138.62 17.82 A 19.803 19.803 0 0 1 140.389 17.535 Q 142.535 17.28 145.56 17.28 Z M 110.36 17.28 L 111.64 17.28 L 111.64 16.04 A 9.528 9.528 0 0 0 111.562 14.771 Q 111.372 13.366 110.725 12.58 A 2.718 2.718 0 0 0 110.62 12.46 Q 109.82 11.598 108.27 11.411 A 7.643 7.643 0 0 0 107.36 11.36 Q 105.6 11.36 103.96 11.86 Q 102.32 12.36 100.6 13.48 L 99.48 11.12 A 10.796 10.796 0 0 1 101.34 10.071 A 14.616 14.616 0 0 1 103.18 9.4 Q 105.36 8.76 107.36 8.76 Q 111.12 8.76 112.94 10.6 A 5.626 5.626 0 0 1 114.216 12.687 Q 114.76 14.198 114.76 16.32 L 114.76 28.56 L 111.72 28.56 L 111.72 25.2 Q 110.96 26.92 109.38 27.92 Q 107.8 28.92 105.68 28.92 A 8.815 8.815 0 0 1 103.674 28.7 A 7.272 7.272 0 0 1 102.1 28.14 A 6.593 6.593 0 0 1 100.31 26.867 A 6.063 6.063 0 0 1 99.6 26 Q 98.68 24.64 98.68 22.96 Q 98.68 21.164 99.47 19.999 A 3.896 3.896 0 0 1 99.78 19.6 Q 100.566 18.714 102.086 18.186 A 11.095 11.095 0 0 1 103.42 17.82 A 19.803 19.803 0 0 1 105.189 17.535 Q 107.335 17.28 110.36 17.28 Z M 121.68 21.84 L 121.68 11.64 L 117.88 11.64 L 117.88 9.12 L 121.68 9.12 L 121.68 3.16 L 124.92 3.16 L 124.92 9.12 L 131.08 9.12 L 131.08 11.64 L 124.92 11.64 L 124.92 21.52 A 8.675 8.675 0 0 0 125.009 22.807 Q 125.212 24.16 125.88 24.98 A 2.944 2.944 0 0 0 127.226 25.897 Q 127.72 26.07 128.33 26.129 A 6.908 6.908 0 0 0 129 26.16 Q 129.64 26.16 130.28 26 Q 130.92 25.84 131.44 25.68 L 132 28.16 Q 131.48 28.44 130.48 28.68 A 8.718 8.718 0 0 1 129.202 28.892 A 7.399 7.399 0 0 1 128.56 28.92 A 10.335 10.335 0 0 1 126.589 28.745 Q 125.47 28.527 124.606 28.039 A 5.09 5.09 0 0 1 123.4 27.1 A 5.851 5.851 0 0 1 122.084 24.793 Q 121.806 23.908 121.719 22.844 A 12.37 12.37 0 0 1 121.68 21.84 Z M 155.96 22.12 L 155.96 0.36 L 159.2 0.36 L 159.2 21.88 Q 159.2 26.16 162.6 26.16 Q 163.6 26.16 164.4 25.92 L 164.32 28.64 A 11.293 11.293 0 0 1 162.542 28.9 A 9.895 9.895 0 0 1 161.92 28.92 Q 158.96 28.92 157.46 27.18 Q 155.96 25.44 155.96 22.12 Z M 173.184 28.648 A 10.932 10.932 0 0 0 175.68 28.92 A 11.424 11.424 0 0 0 177.22 28.819 A 8.889 8.889 0 0 0 180.58 27.68 Q 182.68 26.44 183.82 24.18 A 10.274 10.274 0 0 0 184.726 21.463 A 13.995 13.995 0 0 0 184.96 18.84 A 14.154 14.154 0 0 0 184.757 16.387 A 10.356 10.356 0 0 0 183.82 13.5 Q 182.68 11.24 180.58 10 A 8.6 8.6 0 0 0 178.286 9.065 A 10.684 10.684 0 0 0 175.68 8.76 Q 172.84 8.76 170.76 10 Q 168.68 11.24 167.54 13.5 A 10.274 10.274 0 0 0 166.634 16.217 A 13.995 13.995 0 0 0 166.4 18.84 A 14.154 14.154 0 0 0 166.603 21.293 A 10.356 10.356 0 0 0 167.54 24.18 Q 168.68 26.44 170.76 27.68 A 8.471 8.471 0 0 0 173.184 28.648 Z M 237.264 28.648 A 10.932 10.932 0 0 0 239.76 28.92 A 11.424 11.424 0 0 0 241.3 28.819 A 8.889 8.889 0 0 0 244.66 27.68 Q 246.76 26.44 247.9 24.18 A 10.274 10.274 0 0 0 248.806 21.463 A 13.995 13.995 0 0 0 249.04 18.84 A 14.154 14.154 0 0 0 248.837 16.387 A 10.356 10.356 0 0 0 247.9 13.5 Q 246.76 11.24 244.66 10 A 8.6 8.6 0 0 0 242.366 9.065 A 10.684 10.684 0 0 0 239.76 8.76 Q 236.92 8.76 234.84 10 Q 232.76 11.24 231.62 13.5 A 10.274 10.274 0 0 0 230.714 16.217 A 13.995 13.995 0 0 0 230.48 18.84 A 14.154 14.154 0 0 0 230.683 21.293 A 10.356 10.356 0 0 0 231.62 24.18 Q 232.76 26.44 234.84 27.68 A 8.471 8.471 0 0 0 237.264 28.648 Z M 225.64 28.56 L 222.4 28.56 L 222.4 9.12 L 225.64 9.12 L 225.64 28.56 Z M 24.52 28.56 L 21.28 28.56 L 21.28 9.12 L 24.52 9.12 L 24.52 28.56 Z M 175.68 26.32 Q 178.4 26.32 180.04 24.38 Q 181.385 22.789 181.627 20.082 A 13.958 13.958 0 0 0 181.68 18.84 A 12.952 12.952 0 0 0 181.52 16.733 Q 181.334 15.608 180.933 14.71 A 5.87 5.87 0 0 0 180.04 13.28 A 5.363 5.363 0 0 0 176.109 11.373 A 7.355 7.355 0 0 0 175.68 11.36 A 6.401 6.401 0 0 0 173.698 11.653 A 5.175 5.175 0 0 0 171.3 13.28 A 6.205 6.205 0 0 0 170.164 15.373 Q 169.68 16.85 169.68 18.84 A 12.831 12.831 0 0 0 169.846 20.976 Q 170.199 23.062 171.3 24.38 A 5.298 5.298 0 0 0 175.162 26.302 A 7.411 7.411 0 0 0 175.68 26.32 Z M 239.76 26.32 Q 242.48 26.32 244.12 24.38 Q 245.465 22.789 245.707 20.082 A 13.958 13.958 0 0 0 245.76 18.84 A 12.952 12.952 0 0 0 245.6 16.733 Q 245.414 15.608 245.013 14.71 A 5.87 5.87 0 0 0 244.12 13.28 A 5.363 5.363 0 0 0 240.189 11.373 A 7.355 7.355 0 0 0 239.76 11.36 A 6.401 6.401 0 0 0 237.778 11.653 A 5.175 5.175 0 0 0 235.38 13.28 A 6.205 6.205 0 0 0 234.244 15.373 Q 233.76 16.85 233.76 18.84 A 12.831 12.831 0 0 0 233.926 20.976 Q 234.279 23.062 235.38 24.38 A 5.298 5.298 0 0 0 239.242 26.302 A 7.411 7.411 0 0 0 239.76 26.32 Z M 197.96 25.48 A 6.576 6.576 0 0 0 199.97 25.187 A 5.241 5.241 0 0 0 202.4 23.56 A 6.547 6.547 0 0 0 203.748 20.899 Q 204.04 19.767 204.04 18.4 A 10.364 10.364 0 0 0 203.837 16.288 Q 203.563 14.969 202.916 13.954 A 5.971 5.971 0 0 0 202.4 13.26 A 5.383 5.383 0 0 0 198.725 11.398 A 7.583 7.583 0 0 0 197.96 11.36 Q 195.2 11.36 193.56 13.26 Q 192.029 15.034 191.927 17.975 A 12.286 12.286 0 0 0 191.92 18.4 A 10.366 10.366 0 0 0 192.13 20.548 Q 192.506 22.326 193.56 23.56 A 5.378 5.378 0 0 0 197.432 25.462 A 7.488 7.488 0 0 0 197.96 25.48 Z M 111.64 20.6 L 111.64 19.4 L 110.4 19.4 A 56.874 56.874 0 0 0 108.51 19.429 Q 106.782 19.487 105.577 19.658 A 14.832 14.832 0 0 0 105.3 19.7 A 9.189 9.189 0 0 0 104.367 19.897 Q 103.238 20.203 102.7 20.74 A 2.455 2.455 0 0 0 102.04 21.978 A 3.634 3.634 0 0 0 101.96 22.76 A 3.841 3.841 0 0 0 102.186 24.102 A 3.384 3.384 0 0 0 103.1 25.44 A 3.823 3.823 0 0 0 104.768 26.315 Q 105.358 26.465 106.055 26.479 A 7.217 7.217 0 0 0 106.2 26.48 A 5.659 5.659 0 0 0 108.132 26.162 A 4.941 4.941 0 0 0 110.12 24.82 A 5.731 5.731 0 0 0 111.577 21.603 A 7.783 7.783 0 0 0 111.64 20.6 Z M 146.84 20.6 L 146.84 19.4 L 145.6 19.4 A 56.874 56.874 0 0 0 143.71 19.429 Q 141.982 19.487 140.777 19.658 A 14.832 14.832 0 0 0 140.5 19.7 A 9.189 9.189 0 0 0 139.567 19.897 Q 138.438 20.203 137.9 20.74 A 2.455 2.455 0 0 0 137.24 21.978 A 3.634 3.634 0 0 0 137.16 22.76 A 3.841 3.841 0 0 0 137.386 24.102 A 3.384 3.384 0 0 0 138.3 25.44 A 3.823 3.823 0 0 0 139.968 26.315 Q 140.558 26.465 141.255 26.479 A 7.217 7.217 0 0 0 141.4 26.48 A 5.659 5.659 0 0 0 143.332 26.162 A 4.941 4.941 0 0 0 145.32 24.82 A 5.731 5.731 0 0 0 146.777 21.603 A 7.783 7.783 0 0 0 146.84 20.6 Z M 216.84 28.56 L 212.76 28.56 L 212.76 24.48 L 216.84 24.48 L 216.84 28.56 Z M 226 4.28 L 222 4.28 L 222 0.64 L 226 0.64 L 226 4.28 Z M 24.88 4.28 L 20.88 4.28 L 20.88 0.64 L 24.88 0.64 L 24.88 4.28 Z" vector-effect="non-scaling-stroke"/></g></svg>